<svg width="8268" height="3543" viewBox="0 0 8268 3543" fill="none" xmlns="http://www.w3.org/2000/svg">
<g clip-path="url(#clip0_2:3)">
<rect width="8268" height="3543" fill="url(#paint0_radial_2:3)"/>
<path d="M1497 544L1422.22 504.143L1233 481.402L1304.64 373.003L1233 264.605L1376.28 138.392L1747.62 66L2085.5 149L2352 95L2624.5 76L2764.28 138.392L2889.5 288.5L2829.36 332.449L2868.19 426.5L2747 490L2678.5 556.5L2418.5 571L2171.46 644L2028.5 504.143L1898.5 529.5L1747.62 603.445L1630.5 556.5L1497 544Z" fill="#F3B5AC"/>
<path d="M2030 502.5L2439 404.5L2171 644L2030 502.5Z" fill="#C4C4C4" fill-opacity="0.71"/>
<g filter="url(#filter0_d_2:3)">
<path d="M4607 1226L5007.13 1324.62L5315.59 1597.9L5461.72 1983.22L5412.05 2392.31L5177.95 2731.47L4813.05 2922.98H4400.95L4036.05 2731.47L3801.95 2392.31L3752.28 1983.22L3898.41 1597.9L4206.87 1324.62L4607 1226Z" fill="#F7C477"/>
</g>
<path d="M226.5 399L-30 703L-12.5 1151.5L-30 1542.5V1840.5V2220.5V2650.5L-12.5 3580.5H8293V399V145.5L8005.5 488.5L7975.5 399L7695.5 911.5L7546.5 655L7451.5 1012.5L7338.5 756.5L7255 542L7076 911.5L6999 1179.5L6915.5 1012.5L6671 1673.5L6468.5 1578.5L6212.5 1417.5L6075.5 1751L5807.5 1578.5L5563.5 1751L5414.5 1578.5L5349 1900L5247.5 1781L5182 1578.5L5081 1900L4872.5 1751L4598.5 2001.5L4372 1840.5L4241 1542.5L4181.5 1673.5L4068 1465.5L3967 1245L3842 1578.5L3687 1781L3621.5 1417.5L3550 1673.5L3484.5 1507L3359.5 1709.5L3067.5 1751L2793.5 1542.5L2376.5 1578.5L2216 1673.5L1959.5 1465.5L1846.5 1322.5L1715.5 1507L1483 1084L1441.5 1179.5L1209 756.5L971 1042.5L810 911.5L667 703L530 828L226.5 399Z" fill="#542531"/>
<path d="M2404 2309L1676.5 2416.5V3011L5560.5 3049L5655 2353L5136.5 2131.5L4769.5 2277L4402.5 2100L4206.5 2233L4080 1891.5L3637.5 1999L3106 2176L2948 2100L2404 2309Z" fill="#441F2F"/>
<path d="M2404 2309L1676.5 2416.5V3011L5560.5 3049L5655 2353L5136.5 2131.5L4769.5 2277L4402.5 2100L4206.5 2233L4080 1891.5L3637.5 1999L3106 2176L2948 2100L2404 2309Z" fill="url(#paint1_radial_2:3)"/>
<path d="M202.5 708.5L0 578V3580.5L8260.5 3536V1950V1488L7988.5 1171L7685 1411.5L7596.5 1272L7489 1705.5L7229.5 1310L7147.5 1411.5L7065 1171L6932.5 1488L6793 1208.5L6407.5 1804L5964.5 1411.5L5876 1626.5L5724 1917.5L5604 1626.5L5427 2011L5325.5 1917.5L5205.5 2334L5117.5 2429.5L4984.5 2550L4826.5 2379L4725.5 2493L4554.5 2214.5L4352 2657.5L4219 2429.5L4041.5 2657.5L3934.5 2493L3820 2550L3693.5 2284.5L3593 2214.5L3472 2379L3314.5 2550L3163 2429.5L2979.5 2214.5L2839.5 2379L2732 2284.5H2625L2580 2094.5L2529.5 2214.5L2403 1844L2131.5 2160.5L1955 2011L1796.5 2056L1714.5 1950L1649 1804L1523.5 1950L1290.5 1411.5L1231 1705.5L1161 1844L968 1455L769 1208.5L664 893.5L537.5 936L411 784.5L322.5 316.5L202.5 708.5Z" fill="#291C2E"/>
<path d="M202.5 708.5L0 578V3580.5L8260.5 3536V1950V1488L7988.5 1171L7685 1411.5L7596.5 1272L7489 1705.5L7229.5 1310L7147.5 1411.5L7065 1171L6932.5 1488L6793 1208.5L6407.5 1804L5964.5 1411.5L5876 1626.5L5724 1917.5L5604 1626.5L5427 2011L5325.5 1917.5L5205.5 2334L5117.5 2429.5L4984.5 2550L4826.5 2379L4725.5 2493L4554.5 2214.5L4352 2657.5L4219 2429.5L4041.5 2657.5L3934.5 2493L3820 2550L3693.5 2284.5L3593 2214.5L3472 2379L3314.5 2550L3163 2429.5L2979.5 2214.5L2839.5 2379L2732 2284.5H2625L2580 2094.5L2529.5 2214.5L2403 1844L2131.5 2160.5L1955 2011L1796.5 2056L1714.5 1950L1649 1804L1523.5 1950L1290.5 1411.5L1231 1705.5L1161 1844L968 1455L769 1208.5L664 893.5L537.5 936L411 784.5L322.5 316.5L202.5 708.5Z" fill="url(#paint2_radial_2:3)"/>
<path d="M1382 2337L1351 2496.5V3552.5L5356 3438.5L5687 2834.5L5530 2530.5L5515.5 2558L5506.5 2520.5L5496 2558L5484.5 2507.5L5476.5 2584L5463.5 2543.5L5453.5 2603.5L5439 2573.5V2647.5L5419.5 2603.5V2702L5380.5 2603.5L5370 2647.5L5356 2628V2702L5338 2647.5L5323.5 2751.5L5244.5 2760.5L5235 2720L5226 2769.5L5203 2720L5193.5 2760.5L5173 2690.5L5162.5 2734.5L5149.5 2690.5L5132.5 2726.5L5117 2660.5L5103 2690.5L5084.5 2628L5071.5 2660.5L5057.5 2591.5L5043 2638.5L5022.5 2565.5L5007 2628L4991 2543.5L4972 2603.5L4957.5 2558L4944.5 2647.5L4930.5 2573.5L4918.5 2638.5L4908 2584L4892.5 2621.5L4877 2565.5L4866.5 2603.5L4850 2543.5L4838 2565.5L4824 2530.5L4805.5 2603.5L4791.5 2543.5L4774.5 2591.5L4755 2507.5L4744.5 2573.5L4737 2530.5L4718.5 2621.5L4709.5 2591.5L4700.5 2638.5L4682.5 2558L4672 2638.5L4648.5 2573.5L4635.5 2603.5L4616 2543.5L4591.5 2628L4585 2591.5L4573.5 2621.5L4561.5 2573.5L4543.5 2638.5L4533 2621.5L4523 2660.5L4506 2591.5L4487.5 2647.5L4477.5 2603.5L4465.5 2672L4454 2638.5L4438.5 2690.5L4426.5 2647.5L4413.5 2720L4406 2672L4390.5 2734.5L4373.5 2690.5L4362 2726.5L4350 2672L4336 2702L4317.5 2647.5L4302 2726.5L4289 2702L4275 2743.5L4262 2672L4249 2734.5L4238.5 2710L4225.5 2751.5L4207.5 2702L4190.5 2743.5L4175 2672L4158 2734.5L4150.5 2690.5L4136 2760L4123 2710L4110 2779L4098.5 2743.5L4086.5 2826L4072.5 2779L4064.5 2815L4053 2773L4040.5 2806L4025 2760L4011.5 2806L3999.5 2743.5L3984 2826L3973 2799L3962 2849.5L3938.5 2779L3921 2849.5L3911 2806L3896.5 2882L3887 2836.5L3874.5 2910.5L3869 2870.5L3857 2930.5L3846 2849.5L3815 2917.5L3806 2870.5L3787.5 2948L3773 2889L3757.5 2968L3751 2941L3735.5 2990L3724.5 2930.5L3710 2968L3693.5 2917.5L3676.5 2955L3657 2901L3646 2941L3629 2889L3618 2917.5L3607 2882L3596 2908L3586.5 2870.5L3571.5 2930.5L3564 2901L3553.5 2941L3542 2889L3521 2948L3511.5 2889L3496 2948L3485.5 2901L3472.5 2955L3461 2889L3443.5 2955L3415 2882L3409 2930.5L3393 2870.5L3376.5 2908L3366 2849.5L3353 2889L3346 2857.5L3335.5 2889L3322.5 2836.5L3316.5 2882L3301 2826L3288.5 2870.5L3275.5 2806L3266 2857.5L3245 2773L3234.5 2815L3225 2743.5L3212 2768L3200.5 2720L3182.5 2806L3173.5 2768L3160.5 2826L3144 2760L3137 2826L3125 2790.5L3118 2826L3104 2743.5L3092.5 2826L3077 2773L3073.5 2826L3058 2760L3043 2790.5V2736.5L3027.5 2768V2710.5L3011.5 2760L2998.5 2674.5L2989 2720L2980.5 2619L2962 2686L2953.5 2631L2941 2710.5L2931.5 2686L2923 2736.5L2909 2659L2896 2710.5L2887 2659L2876.5 2701.5L2867 2619L2853 2666.5L2842 2612L2829.5 2674.5L2823.5 2631L2804.5 2701.5L2795.5 2619L2784.5 2686L2777.5 2644L2763.5 2674.5L2757.5 2619L2739 2674.5L2728.5 2597L2721.5 2674.5L2708.5 2625L2700 2674.5L2692 2644L2675.5 2710.5L2664 2674.5L2654.5 2736.5L2648.5 2710.5L2639 2752L2621.5 2686L2610 2726L2593.5 2666.5L2585 2710.5L2570 2644L2560.5 2686L2551 2625L2544 2674.5L2530 2644L2523 2701.5L2512.5 2644L2504 2686L2498 2625L2485.5 2720L2459.5 2674.5L2442 2720L2426.5 2625L2415 2701.5L2393.5 2619L2356 2666.5L2054.5 2477.5L2036 2372L2027.5 2422L2010 2362.5L1996.5 2406L1988.5 2381.5L1976.5 2450.5L1968 2395L1960 2450.5L1941 2344L1930.5 2395L1910 2344L1902 2372L1883 2298L1875 2329L1861.5 2260L1853.5 2298L1842.5 2208.5L1832 2260L1811.5 2171L1805 2246.5L1790 2158.5L1773.5 2221L1756 2138.5L1741.5 2221L1730.5 2158.5L1715.5 2208.5L1702 2126.5L1684.5 2187L1675 2087L1663 2158.5L1653.5 2126.5L1645.5 2196.5L1619.5 2100.5L1594 2196.5L1586 2126.5L1572.5 2208.5L1555 2158.5L1541.5 2221L1532 2138.5L1517 2221L1494 2167L1484.5 2260L1476.5 2231.5L1464.5 2283L1455 2221L1442.5 2329L1429 2283L1420 2354.5L1403.5 2298L1393 2381.5L1382 2337Z" fill="#1F1523"/>
<path d="M691 1888L-30 1328.5V3568H6927.5V2364.5L5891 2102.5L5497.5 2585L5200 2758L4723.5 2895L3973 2930.5L3222.5 3157L2716 2930.5L2335 2364.5L1727.5 2454L1191.5 2674.5L822 2305L691 1888Z" fill="#0D0B14"/>
<path d="M1180 2323.43L1256.65 2150L1334 2323.43H1312.73L1334 2377.86L1305.91 2374.18L1334 2441.15H1312.73L1334 2491.89H1314.52L1334 2537.01H1319.66L1334 2572.06H1319.66L1334 2607.77H1266.94V2661H1244.69V2607.77H1180L1196.02 2572.06H1180L1196.02 2537.01H1180L1198.89 2490.59L1180 2491.89L1201.66 2438.66H1180L1206.9 2374.18H1180L1201.66 2323.43H1180Z" fill="#0D0B14"/>
<path d="M1543 2286.43L1619.65 2113L1697 2286.43H1675.73L1697 2340.86L1668.91 2337.18L1697 2404.15H1675.73L1697 2454.89H1677.52L1697 2500.01H1682.66L1697 2535.06H1682.66L1697 2570.77H1629.94V2624H1607.69V2570.77H1543L1559.02 2535.06H1543L1559.02 2500.01H1543L1561.89 2453.59L1543 2454.89L1564.66 2401.66H1543L1569.9 2337.18H1543L1564.66 2286.43H1543Z" fill="#0D0B14"/>
<path d="M1426 2401.43L1502.65 2228L1580 2401.43H1558.73L1580 2455.86L1551.91 2452.18L1580 2519.15H1558.73L1580 2569.89H1560.52L1580 2615.01H1565.66L1580 2650.06H1565.66L1580 2685.77H1512.94V2739H1490.69V2685.77H1426L1442.02 2650.06H1426L1442.02 2615.01H1426L1444.89 2568.59L1426 2569.89L1447.66 2516.66H1426L1452.9 2452.18H1426L1447.66 2401.43H1426Z" fill="#0D0B14"/>
<path d="M1182 2542.43L1258.65 2369L1336 2542.43H1314.73L1336 2596.86L1307.91 2593.18L1336 2660.15H1314.73L1336 2710.89H1316.52L1336 2756.01H1321.66L1336 2791.06H1321.66L1336 2826.77H1268.94V2880H1246.69V2826.77H1182L1198.02 2791.06H1182L1198.02 2756.01H1182L1200.89 2709.59L1182 2710.89L1203.66 2657.66H1182L1208.9 2593.18H1182L1203.66 2542.43H1182Z" fill="#0D0B14"/>
<path d="M936 2287.43L1012.65 2114L1090 2287.43H1068.73L1090 2341.86L1061.91 2338.18L1090 2405.15H1068.73L1090 2455.89H1070.52L1090 2501.01H1075.66L1090 2536.06H1075.66L1090 2571.77H1022.94V2625H1000.69V2571.77H936L952.023 2536.06H936L952.023 2501.01H936L954.891 2454.59L936 2455.89L957.661 2402.66H936L962.903 2338.18H936L957.661 2287.43H936Z" fill="#0D0B14"/>
<path d="M1069 2460.43L1145.65 2287L1223 2460.43H1201.73L1223 2514.86L1194.91 2511.18L1223 2578.15H1201.73L1223 2628.89H1203.52L1223 2674.01H1208.66L1223 2709.06H1208.66L1223 2744.77H1155.94V2798H1133.69V2744.77H1069L1085.02 2709.06H1069L1085.02 2674.01H1069L1087.89 2627.59L1069 2628.89L1090.66 2575.66H1069L1095.9 2511.18H1069L1090.66 2460.43H1069Z" fill="#0D0B14"/>
<path d="M1297 2401.43L1373.65 2228L1451 2401.43H1429.73L1451 2455.86L1422.91 2452.18L1451 2519.15H1429.73L1451 2569.89H1431.52L1451 2615.01H1436.66L1451 2650.06H1436.66L1451 2685.77H1383.94V2739H1361.69V2685.77H1297L1313.02 2650.06H1297L1313.02 2615.01H1297L1315.89 2568.59L1297 2569.89L1318.66 2516.66H1297L1323.9 2452.18H1297L1318.66 2401.43H1297Z" fill="#0D0B14"/>
<path d="M2645 2798.43L2721.65 2625L2799 2798.43H2777.73L2799 2852.86L2770.91 2849.18L2799 2916.15H2777.73L2799 2966.89H2779.52L2799 3012.01H2784.66L2799 3047.06H2784.66L2799 3082.77H2731.94V3136H2709.69V3082.77H2645L2661.02 3047.06H2645L2661.02 3012.01H2645L2663.89 2965.59L2645 2966.89L2666.66 2913.66H2645L2671.9 2849.18H2645L2666.66 2798.43H2645Z" fill="#0D0B14"/>
<path d="M2890 2834.43L2966.65 2661L3044 2834.43H3022.73L3044 2888.86L3015.91 2885.18L3044 2952.15H3022.73L3044 3002.89H3024.52L3044 3048.01H3029.66L3044 3083.06H3029.66L3044 3118.77H2976.94V3172H2954.69V3118.77H2890L2906.02 3083.06H2890L2906.02 3048.01H2890L2908.89 3001.59L2890 3002.89L2911.66 2949.66H2890L2916.9 2885.18H2890L2911.66 2834.43H2890Z" fill="#0D0B14"/>
<path d="M3408 2871.43L3484.65 2698L3562 2871.43H3540.73L3562 2925.86L3533.91 2922.18L3562 2989.15H3540.73L3562 3039.89H3542.52L3562 3085.01H3547.66L3562 3120.06H3547.66L3562 3155.77H3494.94V3209H3472.69V3155.77H3408L3424.02 3120.06H3408L3424.02 3085.01H3408L3426.89 3038.59L3408 3039.89L3429.66 2986.66H3408L3434.9 2922.18H3408L3429.66 2871.43H3408Z" fill="#0D0B14"/>
<path d="M3926 2797.43L4002.65 2624L4080 2797.43H4058.73L4080 2851.86L4051.91 2848.18L4080 2915.15H4058.73L4080 2965.89H4060.52L4080 3011.01H4065.66L4080 3046.06H4065.66L4080 3081.77H4012.94V3135H3990.69V3081.77H3926L3942.02 3046.06H3926L3942.02 3011.01H3926L3944.89 2964.59L3926 2965.89L3947.66 2912.66H3926L3952.9 2848.18H3926L3947.66 2797.43H3926Z" fill="#0D0B14"/>
<path d="M4199 2657.43L4275.65 2484L4353 2657.43H4331.73L4353 2711.86L4324.91 2708.18L4353 2775.15H4331.73L4353 2825.89H4333.52L4353 2871.01H4338.66L4353 2906.06H4338.66L4353 2941.77H4285.94V2995H4263.69V2941.77H4199L4215.02 2906.06H4199L4215.02 2871.01H4199L4217.89 2824.59L4199 2825.89L4220.66 2772.66H4199L4225.9 2708.18H4199L4220.66 2657.43H4199Z" fill="#0D0B14"/>
<path d="M4890 2711.43L4966.65 2538L5044 2711.43H5022.73L5044 2765.86L5015.91 2762.18L5044 2829.15H5022.73L5044 2879.89H5024.52L5044 2925.01H5029.66L5044 2960.06H5029.66L5044 2995.77H4976.94V3049H4954.69V2995.77H4890L4906.02 2960.06H4890L4906.02 2925.01H4890L4908.89 2878.59L4890 2879.89L4911.66 2826.66H4890L4916.9 2762.18H4890L4911.66 2711.43H4890Z" fill="#0D0B14"/>
<path d="M4530 2643.43L4606.65 2470L4684 2643.43H4662.73L4684 2697.86L4655.91 2694.18L4684 2761.15H4662.73L4684 2811.89H4664.52L4684 2857.01H4669.66L4684 2892.06H4669.66L4684 2927.77H4616.94V2981H4594.69V2927.77H4530L4546.02 2892.06H4530L4546.02 2857.01H4530L4548.89 2810.59L4530 2811.89L4551.66 2758.66H4530L4556.9 2694.18H4530L4551.66 2643.43H4530Z" fill="#0D0B14"/>
<path d="M2799 2881.33L2849.27 2807L2900 2881.33H2886.05L2900 2904.65L2881.58 2903.08L2900 2931.78H2886.05L2900 2953.53H2887.22L2900 2972.86H2890.59L2900 2987.88H2890.59L2900 3003.19H2856.02V3026H2841.42V3003.19H2799L2809.51 2987.88H2799L2809.51 2972.86H2799L2811.39 2952.97L2799 2953.53L2813.21 2930.71H2799L2816.64 2903.08H2799L2813.21 2881.33H2799Z" fill="#0D0B14"/>
<path d="M3044 3013.33L3094.27 2939L3145 3013.33H3131.05L3145 3036.65L3126.58 3035.08L3145 3063.78H3131.05L3145 3085.53H3132.22L3145 3104.86H3135.59L3145 3119.88H3135.59L3145 3135.19H3101.02V3158H3086.42V3135.19H3044L3054.51 3119.88H3044L3054.51 3104.86H3044L3056.39 3084.97L3044 3085.53L3058.21 3062.71H3044L3061.64 3035.08H3044L3058.21 3013.33H3044Z" fill="#0D0B14"/>
<path d="M3175 3069.33L3225.27 2995L3276 3069.33H3262.05L3276 3092.65L3257.58 3091.08L3276 3119.78H3262.05L3276 3141.53H3263.22L3276 3160.86H3266.59L3276 3175.88H3266.59L3276 3191.19H3232.02V3214H3217.42V3191.19H3175L3185.51 3175.88H3175L3185.51 3160.86H3175L3187.39 3140.97L3175 3141.53L3189.21 3118.71H3175L3192.64 3091.08H3175L3189.21 3069.33H3175Z" fill="#0D0B14"/>
<path d="M3614 2945.33L3664.27 2871L3715 2945.33H3701.05L3715 2968.65L3696.58 2967.08L3715 2995.78H3701.05L3715 3017.53H3702.22L3715 3036.86H3705.59L3715 3051.88H3705.59L3715 3067.19H3671.02V3090H3656.42V3067.19H3614L3624.51 3051.88H3614L3624.51 3036.86H3614L3626.39 3016.97L3614 3017.53L3628.21 2994.71H3614L3631.64 2967.08H3614L3628.21 2945.33H3614Z" fill="#0D0B14"/>
<path d="M4072 2850.33L4122.27 2776L4173 2850.33H4159.05L4173 2873.65L4154.58 2872.08L4173 2900.78H4159.05L4173 2922.53H4160.22L4173 2941.86H4163.59L4173 2956.88H4163.59L4173 2972.19H4129.02V2995H4114.42V2972.19H4072L4082.51 2956.88H4072L4082.51 2941.86H4072L4084.39 2921.97L4072 2922.53L4086.21 2899.71H4072L4089.64 2872.08H4072L4086.21 2850.33H4072Z" fill="#0D0B14"/>
<path d="M4404 2794.33L4454.27 2720L4505 2794.33H4491.05L4505 2817.65L4486.58 2816.08L4505 2844.78H4491.05L4505 2866.53H4492.22L4505 2885.86H4495.59L4505 2900.88H4495.59L4505 2916.19H4461.02V2939H4446.42V2916.19H4404L4414.51 2900.88H4404L4414.51 2885.86H4404L4416.39 2865.97L4404 2866.53L4418.21 2843.71H4404L4421.64 2816.08H4404L4418.21 2794.33H4404Z" fill="#0D0B14"/>
<path d="M4748 2836.33L4798.27 2762L4849 2836.33H4835.05L4849 2859.65L4830.58 2858.08L4849 2886.78H4835.05L4849 2908.53H4836.22L4849 2927.86H4839.59L4849 2942.88H4839.59L4849 2958.19H4805.02V2981H4790.42V2958.19H4748L4758.51 2942.88H4748L4758.51 2927.86H4748L4760.39 2907.97L4748 2908.53L4762.21 2885.71H4748L4765.64 2858.08H4748L4762.21 2836.33H4748Z" fill="#0D0B14"/>
<path d="M4803 2762.33L4853.27 2688L4904 2762.33H4890.05L4904 2785.65L4885.58 2784.08L4904 2812.78H4890.05L4904 2834.53H4891.22L4904 2853.86H4894.59L4904 2868.88H4894.59L4904 2884.19H4860.02V2907H4845.42V2884.19H4803L4813.51 2868.88H4803L4813.51 2853.86H4803L4815.39 2833.97L4803 2834.53L4817.21 2811.71H4803L4820.64 2784.08H4803L4817.21 2762.33H4803Z" fill="#0D0B14"/>
<path d="M5023 2726.33L5073.27 2652L5124 2726.33H5110.05L5124 2749.65L5105.58 2748.08L5124 2776.78H5110.05L5124 2798.53H5111.22L5124 2817.86H5114.59L5124 2832.88H5114.59L5124 2848.19H5080.02V2871H5065.42V2848.19H5023L5033.51 2832.88H5023L5033.51 2817.86H5023L5035.39 2797.97L5023 2798.53L5037.21 2775.71H5023L5040.64 2748.08H5023L5037.21 2726.33H5023Z" fill="#0D0B14"/>
<path d="M5214 2612.33L5264.27 2538L5315 2612.33H5301.05L5315 2635.65L5296.58 2634.08L5315 2662.78H5301.05L5315 2684.53H5302.22L5315 2703.86H5305.59L5315 2718.88H5305.59L5315 2734.19H5271.02V2757H5256.42V2734.19H5214L5224.51 2718.88H5214L5224.51 2703.86H5214L5226.39 2683.97L5214 2684.53L5228.21 2661.71H5214L5231.64 2634.08H5214L5228.21 2612.33H5214Z" fill="#0D0B14"/>
<path d="M1180 2323.43L1256.65 2150L1334 2323.43H1312.73L1334 2377.86L1305.91 2374.18L1334 2441.15H1312.73L1334 2491.89H1314.52L1334 2537.01H1319.66L1334 2572.06H1319.66L1334 2607.77H1266.94V2661H1244.69V2607.77H1180L1196.02 2572.06H1180L1196.02 2537.01H1180L1198.89 2490.59L1180 2491.89L1201.66 2438.66H1180L1206.9 2374.18H1180L1201.66 2323.43H1180Z" fill="#0D0B14"/>
<path d="M7633.5 1389L7791.5 965L8114 788L8291.5 472V3578H5645.5H1985H-29V2388L624.5 2790.5L1167.5 2890L1658 3368.5L1985 3578H5645.5L5776 3141L5863.5 2469L5603 1870L5565 1617L5712 1575.5H6507.5L7127.5 1484L7633.5 1389Z" fill="#0E0400"/>
<path d="M5659.5 1256L5608 1258L5608.5 1319.5L5617 1321L5609 1322L5611 1527.5L5617.5 1530L5630 1527.5V1605L5636.5 1608.5L5646.5 1605V1410H5653.5L5654 1598.5L5660.5 1602L5670.5 1599L5671 1516L5676 1518.5L5688 1516.5V1400H5689V1321H5692.5V1258L5659.5 1256Z" fill="black"/>
<path d="M344 179L346.324 179.573L348.115 181.16L348.964 183.397L348.675 185.773L347.316 187.743L345.197 188.855H342.803L340.684 187.743L339.325 185.773L339.036 183.397L339.885 181.16L341.676 179.573L344 179Z" fill="#F0FEFF" fill-opacity="0.8"/>
<path d="M560 357L562.324 357.573L564.115 359.16L564.964 361.397L564.675 363.773L563.316 365.743L561.197 366.855H558.803L556.684 365.743L555.325 363.773L555.036 361.397L555.885 359.16L557.676 357.573L560 357Z" fill="#F0FEFF" fill-opacity="0.8"/>
<path d="M1254 113L1256.32 113.573L1258.11 115.16L1258.96 117.397L1258.68 119.773L1257.32 121.743L1255.2 122.855H1252.8L1250.68 121.743L1249.32 119.773L1249.04 117.397L1249.89 115.16L1251.68 113.573L1254 113Z" fill="#F0FEFF" fill-opacity="0.8"/>
<g style="mix-blend-mode:lighten">
<path d="M824 123L826.324 123.573L828.115 125.16L828.964 127.397L828.675 129.773L827.316 131.743L825.197 132.855H822.803L820.684 131.743L819.325 129.773L819.036 127.397L819.885 125.16L821.676 123.573L824 123Z" fill="#F0FEFF" fill-opacity="0.8"/>
</g>
<path d="M450 66L452.324 66.5727L454.115 68.1597L454.964 70.3973L454.675 72.773L453.316 74.7426L451.197 75.8547H448.803L446.684 74.7426L445.325 72.773L445.036 70.3973L445.885 68.1597L447.676 66.5727L450 66Z" fill="#F0FEFF" fill-opacity="0.8"/>
<path d="M26 362L28.3236 362.573L30.1149 364.16L30.9635 366.397L30.6751 368.773L29.3156 370.743L27.1966 371.855H24.8034L22.6844 370.743L21.3249 368.773L21.0365 366.397L21.8851 364.16L23.6764 362.573L26 362Z" fill="#F0FEFF" fill-opacity="0.8"/>
<g style="mix-blend-mode:lighten">
<path d="M83 56L85.3236 56.5727L87.1149 58.1597L87.9635 60.3973L87.6751 62.773L86.3156 64.7426L84.1966 65.8547H81.8034L79.6844 64.7426L78.3249 62.773L78.0365 60.3973L78.8851 58.1597L80.6764 56.5727L83 56Z" fill="#F0FEFF" fill-opacity="0.8"/>
</g>
<path d="M153 241L155.324 241.573L157.115 243.16L157.964 245.397L157.675 247.773L156.316 249.743L154.197 250.855H151.803L149.684 249.743L148.325 247.773L148.036 245.397L148.885 243.16L150.676 241.573L153 241Z" fill="#F0FEFF" fill-opacity="0.8"/>
<path d="M235 103L237.324 103.573L239.115 105.16L239.964 107.397L239.675 109.773L238.316 111.743L236.197 112.855H233.803L231.684 111.743L230.325 109.773L230.036 107.397L230.885 105.16L232.676 103.573L235 103Z" fill="#F0FEFF" fill-opacity="0.8"/>
<path d="M46 199L48.3236 199.573L50.1149 201.16L50.9635 203.397L50.6751 205.773L49.3156 207.743L47.1966 208.855H44.8034L42.6844 207.743L41.3249 205.773L41.0365 203.397L41.8851 201.16L43.6764 199.573L46 199Z" fill="#F0FEFF" fill-opacity="0.8"/>
<g style="mix-blend-mode:lighten">
<path d="M697 37L699.324 37.5727L701.115 39.1597L701.964 41.3973L701.675 43.773L700.316 45.7426L698.197 46.8547H695.803L693.684 45.7426L692.325 43.773L692.036 41.3973L692.885 39.1597L694.676 37.5727L697 37Z" fill="#F0FEFF" fill-opacity="0.8"/>
</g>
<path d="M657 158L659.324 158.573L661.115 160.16L661.964 162.397L661.675 164.773L660.316 166.743L658.197 167.855H655.803L653.684 166.743L652.325 164.773L652.036 162.397L652.885 160.16L654.676 158.573L657 158Z" fill="#F0FEFF" fill-opacity="0.8"/>
<path d="M511 231L513.324 231.573L515.115 233.16L515.964 235.397L515.675 237.773L514.316 239.743L512.197 240.855H509.803L507.684 239.743L506.325 237.773L506.036 235.397L506.885 233.16L508.676 231.573L511 231Z" fill="#F0FEFF" fill-opacity="0.8"/>
<g style="mix-blend-mode:lighten">
<path d="M406 278L408.324 278.573L410.115 280.16L410.964 282.397L410.675 284.773L409.316 286.743L407.197 287.855H404.803L402.684 286.743L401.325 284.773L401.036 282.397L401.885 280.16L403.676 278.573L406 278Z" fill="#F0FEFF" fill-opacity="0.8"/>
</g>
<path d="M750 372L752.324 372.573L754.115 374.16L754.964 376.397L754.675 378.773L753.316 380.743L751.197 381.855H748.803L746.684 380.743L745.325 378.773L745.036 376.397L745.885 374.16L747.676 372.573L750 372Z" fill="#F0FEFF" fill-opacity="0.8"/>
<path d="M388 445L390.324 445.573L392.115 447.16L392.964 449.397L392.675 451.773L391.316 453.743L389.197 454.855H386.803L384.684 453.743L383.325 451.773L383.036 449.397L383.885 447.16L385.676 445.573L388 445Z" fill="#F0FEFF" fill-opacity="0.8"/>
<path d="M550 511L552.324 511.573L554.115 513.16L554.964 515.397L554.675 517.773L553.316 519.743L551.197 520.855H548.803L546.684 519.743L545.325 517.773L545.036 515.397L545.885 513.16L547.676 511.573L550 511Z" fill="#F0FEFF" fill-opacity="0.8"/>
<path d="M1003 93L1005.32 93.5727L1007.11 95.1597L1007.96 97.3973L1007.68 99.773L1006.32 101.743L1004.2 102.855H1001.8L999.684 101.743L998.325 99.773L998.036 97.3973L998.885 95.1597L1000.68 93.5727L1003 93Z" fill="#F0FEFF" fill-opacity="0.8"/>
<g style="mix-blend-mode:lighten">
<path d="M923 207L925.324 207.573L927.115 209.16L927.964 211.397L927.675 213.773L926.316 215.743L924.197 216.855H921.803L919.684 215.743L918.325 213.773L918.036 211.397L918.885 209.16L920.676 207.573L923 207Z" fill="#F0FEFF" fill-opacity="0.8"/>
</g>
<g style="mix-blend-mode:lighten">
<path d="M7951 29L7953.32 29.5727L7955.11 31.1597L7955.96 33.3973L7955.68 35.773L7954.32 37.7426L7952.2 38.8547H7949.8L7947.68 37.7426L7946.32 35.773L7946.04 33.3973L7946.89 31.1597L7948.68 29.5727L7951 29Z" fill="#F0FEFF" fill-opacity="0.8"/>
</g>
<g style="mix-blend-mode:lighten">
<path d="M8000 102L8002.32 102.573L8004.11 104.16L8004.96 106.397L8004.68 108.773L8003.32 110.743L8001.2 111.855H7998.8L7996.68 110.743L7995.32 108.773L7995.04 106.397L7995.89 104.16L7997.68 102.573L8000 102Z" fill="#F0FEFF" fill-opacity="0.8"/>
</g>
<g style="mix-blend-mode:lighten">
<path d="M8225 49L8227.32 49.5727L8229.11 51.1597L8229.96 53.3973L8229.68 55.773L8228.32 57.7426L8226.2 58.8547H8223.8L8221.68 57.7426L8220.32 55.773L8220.04 53.3973L8220.89 51.1597L8222.68 49.5727L8225 49Z" fill="#F0FEFF" fill-opacity="0.8"/>
</g>
<g style="mix-blend-mode:lighten">
<path d="M8199 206L8201.32 206.573L8203.11 208.16L8203.96 210.397L8203.68 212.773L8202.32 214.743L8200.2 215.855H8197.8L8195.68 214.743L8194.32 212.773L8194.04 210.397L8194.89 208.16L8196.68 206.573L8199 206Z" fill="#F0FEFF" fill-opacity="0.8"/>
</g>
<path d="M542 685L544.324 685.573L546.115 687.16L546.964 689.397L546.675 691.773L545.316 693.743L543.197 694.855H540.803L538.684 693.743L537.325 691.773L537.036 689.397L537.885 687.16L539.676 685.573L542 685Z" fill="#F0FEFF" fill-opacity="0.6"/>
<g style="mix-blend-mode:lighten">
<path d="M875 549L877.324 549.573L879.115 551.16L879.964 553.397L879.675 555.773L878.316 557.743L876.197 558.855H873.803L871.684 557.743L870.325 555.773L870.036 553.397L870.885 551.16L872.676 549.573L875 549Z" fill="#F0FEFF" fill-opacity="0.6"/>
</g>
<path d="M1049 357L1051.32 357.573L1053.11 359.16L1053.96 361.397L1053.68 363.773L1052.32 365.743L1050.2 366.855H1047.8L1045.68 365.743L1044.32 363.773L1044.04 361.397L1044.89 359.16L1046.68 357.573L1049 357Z" fill="#F0FEFF" fill-opacity="0.6"/>
<path d="M921 761L923.324 761.573L925.115 763.16L925.964 765.397L925.675 767.773L924.316 769.743L922.197 770.855H919.803L917.684 769.743L916.325 767.773L916.036 765.397L916.885 763.16L918.676 761.573L921 761Z" fill="#F0FEFF" fill-opacity="0.6"/>
<path d="M1115 544L1117.32 544.573L1119.11 546.16L1119.96 548.397L1119.68 550.773L1118.32 552.743L1116.2 553.855H1113.8L1111.68 552.743L1110.32 550.773L1110.04 548.397L1110.89 546.16L1112.68 544.573L1115 544Z" fill="#F0FEFF" fill-opacity="0.6"/>
<g style="mix-blend-mode:lighten">
<path d="M1254 435L1256.32 435.573L1258.11 437.16L1258.96 439.397L1258.68 441.773L1257.32 443.743L1255.2 444.855H1252.8L1250.68 443.743L1249.32 441.773L1249.04 439.397L1249.89 437.16L1251.68 435.573L1254 435Z" fill="#F0FEFF" fill-opacity="0.6"/>
</g>
<path d="M1202 307L1204.32 307.573L1206.11 309.16L1206.96 311.397L1206.68 313.773L1205.32 315.743L1203.2 316.855H1200.8L1198.68 315.743L1197.32 313.773L1197.04 311.397L1197.89 309.16L1199.68 307.573L1202 307Z" fill="#F0FEFF" fill-opacity="0.6"/>
<path d="M7414 14L7416.32 14.5727L7418.11 16.1597L7418.96 18.3973L7418.68 20.773L7417.32 22.7426L7415.2 23.8547H7412.8L7410.68 22.7426L7409.32 20.773L7409.04 18.3973L7409.89 16.1597L7411.68 14.5727L7414 14Z" fill="#F0FEFF" fill-opacity="0.6"/>
<path d="M7574 216L7576.32 216.573L7578.11 218.16L7578.96 220.397L7578.68 222.773L7577.32 224.743L7575.2 225.855H7572.8L7570.68 224.743L7569.32 222.773L7569.04 220.397L7569.89 218.16L7571.68 216.573L7574 216Z" fill="#F0FEFF" fill-opacity="0.6"/>
<path d="M7684 97L7686.32 97.5727L7688.11 99.1597L7688.96 101.397L7688.68 103.773L7687.32 105.743L7685.2 106.855H7682.8L7680.68 105.743L7679.32 103.773L7679.04 101.397L7679.89 99.1597L7681.68 97.5727L7684 97Z" fill="#F0FEFF" fill-opacity="0.6"/>
<path d="M7664 395L7666.32 395.573L7668.11 397.16L7668.96 399.397L7668.68 401.773L7667.32 403.743L7665.2 404.855H7662.8L7660.68 403.743L7659.32 401.773L7659.04 399.397L7659.89 397.16L7661.68 395.573L7664 395Z" fill="#F0FEFF" fill-opacity="0.6"/>
<path d="M7807 264L7809.32 264.573L7811.11 266.16L7811.96 268.397L7811.68 270.773L7810.32 272.743L7808.2 273.855H7805.8L7803.68 272.743L7802.32 270.773L7802.04 268.397L7802.89 266.16L7804.68 264.573L7807 264Z" fill="#F0FEFF" fill-opacity="0.6"/>
<path d="M7911 429L7913.32 429.573L7915.11 431.16L7915.96 433.397L7915.68 435.773L7914.32 437.743L7912.2 438.855H7909.8L7907.68 437.743L7906.32 435.773L7906.04 433.397L7906.89 431.16L7908.68 429.573L7911 429Z" fill="#F0FEFF" fill-opacity="0.6"/>
<path d="M8010 244L8012.32 244.573L8014.11 246.16L8014.96 248.397L8014.68 250.773L8013.32 252.743L8011.2 253.855H8008.8L8006.68 252.743L8005.32 250.773L8005.04 248.397L8005.89 246.16L8007.68 244.573L8010 244Z" fill="#F0FEFF" fill-opacity="0.6"/>
<g style="mix-blend-mode:lighten">
<path d="M8108 151L8110.32 151.573L8112.11 153.16L8112.96 155.397L8112.68 157.773L8111.32 159.743L8109.2 160.855H8106.8L8104.68 159.743L8103.32 157.773L8103.04 155.397L8103.89 153.16L8105.68 151.573L8108 151Z" fill="#F0FEFF" fill-opacity="0.8"/>
</g>
<g style="mix-blend-mode:lighten">
<path d="M1130 824L1132.32 824.573L1134.11 826.16L1134.96 828.397L1134.68 830.773L1133.32 832.743L1131.2 833.855H1128.8L1126.68 832.743L1125.32 830.773L1125.04 828.397L1125.89 826.16L1127.68 824.573L1130 824Z" fill="#F0FEFF" fill-opacity="0.25"/>
</g>
<g style="mix-blend-mode:lighten">
<path d="M1321 667L1323.32 667.573L1325.11 669.16L1325.96 671.397L1325.68 673.773L1324.32 675.743L1322.2 676.855H1319.8L1317.68 675.743L1316.32 673.773L1316.04 671.397L1316.89 669.16L1318.68 667.573L1321 667Z" fill="#F0FEFF" fill-opacity="0.25"/>
</g>
<g style="mix-blend-mode:lighten">
<path d="M1294 854L1296.32 854.573L1298.11 856.16L1298.96 858.397L1298.68 860.773L1297.32 862.743L1295.2 863.855H1292.8L1290.68 862.743L1289.32 860.773L1289.04 858.397L1289.89 856.16L1291.68 854.573L1294 854Z" fill="#F0FEFF" fill-opacity="0.25"/>
</g>
<g style="mix-blend-mode:lighten">
<path d="M1494 590L1496.32 590.573L1498.11 592.16L1498.96 594.397L1498.68 596.773L1497.32 598.743L1495.2 599.855H1492.8L1490.68 598.743L1489.32 596.773L1489.04 594.397L1489.89 592.16L1491.68 590.573L1494 590Z" fill="#F0FEFF" fill-opacity="0.25"/>
</g>
<g style="mix-blend-mode:lighten">
<path d="M1549 766L1551.32 766.573L1553.11 768.16L1553.96 770.397L1553.68 772.773L1552.32 774.743L1550.2 775.855H1547.8L1545.68 774.743L1544.32 772.773L1544.04 770.397L1544.89 768.16L1546.68 766.573L1549 766Z" fill="#F0FEFF" fill-opacity="0.25"/>
</g>
<g style="mix-blend-mode:lighten">
<path d="M959 975L961.324 975.573L963.115 977.16L963.964 979.397L963.675 981.773L962.316 983.743L960.197 984.855H957.803L955.684 983.743L954.325 981.773L954.036 979.397L954.885 977.16L956.676 975.573L959 975Z" fill="#F0FEFF" fill-opacity="0.25"/>
</g>
<g style="mix-blend-mode:lighten">
<path d="M1728 685L1730.32 685.573L1732.11 687.16L1732.96 689.397L1732.68 691.773L1731.32 693.743L1729.2 694.855H1726.8L1724.68 693.743L1723.32 691.773L1723.04 689.397L1723.89 687.16L1725.68 685.573L1728 685Z" fill="#F0FEFF" fill-opacity="0.25"/>
</g>
<g style="mix-blend-mode:lighten">
<path d="M3004 168L3006.32 168.573L3008.11 170.16L3008.96 172.397L3008.68 174.773L3007.32 176.743L3005.2 177.855H3002.8L3000.68 176.743L2999.32 174.773L2999.04 172.397L2999.89 170.16L3001.68 168.573L3004 168Z" fill="#F0FEFF" fill-opacity="0.25"/>
</g>
<g style="mix-blend-mode:lighten">
<path d="M2845 61L2847.32 61.5727L2849.11 63.1597L2849.96 65.3973L2849.68 67.773L2848.32 69.7426L2846.2 70.8547H2843.8L2841.68 69.7426L2840.32 67.773L2840.04 65.3973L2840.89 63.1597L2842.68 61.5727L2845 61Z" fill="#F0FEFF" fill-opacity="0.25"/>
</g>
<g style="mix-blend-mode:lighten">
<path d="M3211 83L3213.32 83.5727L3215.11 85.1597L3215.96 87.3973L3215.68 89.773L3214.32 91.7426L3212.2 92.8547H3209.8L3207.68 91.7426L3206.32 89.773L3206.04 87.3973L3206.89 85.1597L3208.68 83.5727L3211 83Z" fill="#F0FEFF" fill-opacity="0.25"/>
</g>
<g style="mix-blend-mode:lighten">
<path d="M2972 382L2974.32 382.573L2976.11 384.16L2976.96 386.397L2976.68 388.773L2975.32 390.743L2973.2 391.855H2970.8L2968.68 390.743L2967.32 388.773L2967.04 386.397L2967.89 384.16L2969.68 382.573L2972 382Z" fill="#F0FEFF" fill-opacity="0.25"/>
</g>
<g style="mix-blend-mode:lighten">
<path d="M1885 544L1887.32 544.573L1889.11 546.16L1889.96 548.397L1889.68 550.773L1888.32 552.743L1886.2 553.855H1883.8L1881.68 552.743L1880.32 550.773L1880.04 548.397L1880.89 546.16L1882.68 544.573L1885 544Z" fill="#F0FEFF" fill-opacity="0.25"/>
</g>
<g style="mix-blend-mode:lighten">
<path d="M1462 923L1464.32 923.573L1466.11 925.16L1466.96 927.397L1466.68 929.773L1465.32 931.743L1463.2 932.855H1460.8L1458.68 931.743L1457.32 929.773L1457.04 927.397L1457.89 925.16L1459.68 923.573L1462 923Z" fill="#F0FEFF" fill-opacity="0.25"/>
</g>
<g style="mix-blend-mode:lighten">
<path d="M1796 864L1798.32 864.573L1800.11 866.16L1800.96 868.397L1800.68 870.773L1799.32 872.743L1797.2 873.855H1794.8L1792.68 872.743L1791.32 870.773L1791.04 868.397L1791.89 866.16L1793.68 864.573L1796 864Z" fill="#F0FEFF" fill-opacity="0.25"/>
</g>
<g style="mix-blend-mode:lighten">
<path d="M2096 756L2098.32 756.573L2100.11 758.16L2100.96 760.397L2100.68 762.773L2099.32 764.743L2097.2 765.855H2094.8L2092.68 764.743L2091.32 762.773L2091.04 760.397L2091.89 758.16L2093.68 756.573L2096 756Z" fill="#F0FEFF" fill-opacity="0.25"/>
</g>
<g style="mix-blend-mode:lighten">
<path d="M2376 614L2378.32 614.573L2380.11 616.16L2380.96 618.397L2380.68 620.773L2379.32 622.743L2377.2 623.855H2374.8L2372.68 622.743L2371.32 620.773L2371.04 618.397L2371.89 616.16L2373.68 614.573L2376 614Z" fill="#F0FEFF" fill-opacity="0.25"/>
</g>
<g style="mix-blend-mode:lighten">
<path d="M6836 136L6838.32 136.573L6840.11 138.16L6840.96 140.397L6840.68 142.773L6839.32 144.743L6837.2 145.855H6834.8L6832.68 144.743L6831.32 142.773L6831.04 140.397L6831.89 138.16L6833.68 136.573L6836 136Z" fill="#F0FEFF" fill-opacity="0.25"/>
</g>
<g style="mix-blend-mode:lighten">
<path d="M7052 224L7054.32 224.573L7056.11 226.16L7056.96 228.397L7056.68 230.773L7055.32 232.743L7053.2 233.855H7050.8L7048.68 232.743L7047.32 230.773L7047.04 228.397L7047.89 226.16L7049.68 224.573L7052 224Z" fill="#F0FEFF" fill-opacity="0.25"/>
</g>
<g style="mix-blend-mode:lighten">
<path d="M6598 146L6600.32 146.573L6602.11 148.16L6602.96 150.397L6602.68 152.773L6601.32 154.743L6599.2 155.855H6596.8L6594.68 154.743L6593.32 152.773L6593.04 150.397L6593.89 148.16L6595.68 146.573L6598 146Z" fill="#F0FEFF" fill-opacity="0.25"/>
</g>
<g style="mix-blend-mode:lighten">
<path d="M7266 176L7268.32 176.573L7270.11 178.16L7270.96 180.397L7270.68 182.773L7269.32 184.743L7267.2 185.855H7264.8L7262.68 184.743L7261.32 182.773L7261.04 180.397L7261.89 178.16L7263.68 176.573L7266 176Z" fill="#F0FEFF" fill-opacity="0.25"/>
</g>
<g style="mix-blend-mode:lighten">
<path d="M7106 80L7108.32 80.5727L7110.11 82.1597L7110.96 84.3973L7110.68 86.773L7109.32 88.7426L7107.2 89.8547H7104.8L7102.68 88.7426L7101.32 86.773L7101.04 84.3973L7101.89 82.1597L7103.68 80.5727L7106 80Z" fill="#F0FEFF" fill-opacity="0.25"/>
</g>
<g style="mix-blend-mode:lighten">
<path d="M7223 336L7225.32 336.573L7227.11 338.16L7227.96 340.397L7227.68 342.773L7226.32 344.743L7224.2 345.855H7221.8L7219.68 344.743L7218.32 342.773L7218.04 340.397L7218.89 338.16L7220.68 336.573L7223 336Z" fill="#F0FEFF" fill-opacity="0.25"/>
</g>
<g style="mix-blend-mode:lighten">
<path d="M6353 24L6355.32 24.5727L6357.11 26.1597L6357.96 28.3973L6357.68 30.773L6356.32 32.7426L6354.2 33.8547H6351.8L6349.68 32.7426L6348.32 30.773L6348.04 28.3973L6348.89 26.1597L6350.68 24.5727L6353 24Z" fill="#F0FEFF" fill-opacity="0.25"/>
</g>
<g style="mix-blend-mode:lighten">
<path d="M7512 564L7514.32 564.573L7516.11 566.16L7516.96 568.397L7516.68 570.773L7515.32 572.743L7513.2 573.855H7510.8L7508.68 572.743L7507.32 570.773L7507.04 568.397L7507.89 566.16L7509.68 564.573L7512 564Z" fill="#F0FEFF" fill-opacity="0.25"/>
</g>
<g style="mix-blend-mode:lighten">
<path d="M7466 371L7468.32 371.573L7470.11 373.16L7470.96 375.397L7470.68 377.773L7469.32 379.743L7467.2 380.855H7464.8L7462.68 379.743L7461.32 377.773L7461.04 375.397L7461.89 373.16L7463.68 371.573L7466 371Z" fill="#F0FEFF" fill-opacity="0.25"/>
</g>
<g style="mix-blend-mode:lighten">
<path d="M7749 574L7751.32 574.573L7753.11 576.16L7753.96 578.397L7753.68 580.773L7752.32 582.743L7750.2 583.855H7747.8L7745.68 582.743L7744.32 580.773L7744.04 578.397L7744.89 576.16L7746.68 574.573L7749 574Z" fill="#F0FEFF" fill-opacity="0.25"/>
</g>
<g style="mix-blend-mode:lighten">
<path d="M7661 673L7663.32 673.573L7665.11 675.16L7665.96 677.397L7665.68 679.773L7664.32 681.743L7662.2 682.855H7659.8L7657.68 681.743L7656.32 679.773L7656.04 677.397L7656.89 675.16L7658.68 673.573L7661 673Z" fill="#F0FEFF" fill-opacity="0.25"/>
</g>
</g>
<defs>
<filter id="filter0_d_2:3" x="3694.28" y="1099" width="1861.45" height="1848.98" filterUnits="userSpaceOnUse" color-interpolation-filters="sRGB">
<feFlood flood-opacity="0" result="BackgroundImageFix"/>
<feColorMatrix in="SourceAlpha" type="matrix" values="0 0 0 0 0 0 0 0 0 0 0 0 0 0 0 0 0 0 127 0" result="hardAlpha"/>
<feOffset dx="18" dy="-51"/>
<feGaussianBlur stdDeviation="38"/>
<feComposite in2="hardAlpha" operator="out"/>
<feColorMatrix type="matrix" values="0 0 0 0 0.964706 0 0 0 0 0.768627 0 0 0 0 0.466667 0 0 0 0.25 0"/>
<feBlend mode="normal" in2="BackgroundImageFix" result="effect1_dropShadow_2:3"/>
<feBlend mode="normal" in="SourceGraphic" in2="effect1_dropShadow_2:3" result="shape"/>
</filter>
<radialGradient id="paint0_radial_2:3" cx="0" cy="0" r="1" gradientUnits="userSpaceOnUse" gradientTransform="translate(4515 1626) rotate(-96.8606) scale(2741.63 6397.91)">
<stop offset="0.046875" stop-color="#F36600" stop-opacity="0.28"/>
<stop offset="0.192708" stop-color="#D31313" stop-opacity="0.386601"/>
<stop offset="0.421875" stop-color="#3E76B7" stop-opacity="0.77"/>
<stop offset="0.729167" stop-color="#0C1337" stop-opacity="0.77"/>
</radialGradient>
<radialGradient id="paint1_radial_2:3" cx="0" cy="0" r="1" gradientUnits="userSpaceOnUse" gradientTransform="translate(3948 2801.5) rotate(-90.4528) scale(696.022 7150.55)">
<stop stop-color="#C379FE"/>
<stop offset="1" stop-color="#441F2F" stop-opacity="0"/>
</radialGradient>
<radialGradient id="paint2_radial_2:3" cx="0" cy="0" r="1" gradientUnits="userSpaceOnUse" gradientTransform="translate(4130 3581) rotate(-90) scale(1411 3570.95)">
<stop stop-color="#C379FE"/>
<stop offset="1" stop-color="#291C2E" stop-opacity="0"/>
</radialGradient>
<clipPath id="clip0_2:3">
<rect width="8268" height="3543" fill="white"/>
</clipPath>
</defs>
</svg>
